<svg xmlns="http://www.w3.org/2000/svg" xmlns:xlink="http://www.w3.org/1999/xlink" viewBox="114 8 118 233">
  <defs>
<path d="M205.5709,101.352445 C224.161618,141.715993 195.329719,94.2765643 282.682308,101.352445 C291.786345,102.089905 298.637619,130.260526 307.648659,131.750707 C309.630259,132.07841 319.722532,133.741695 319.95055,131.750707 C322.128361,112.73475 251.663974,122.899429 248.416216,122.085654 C235.486064,118.845809 227.812222,71.3063062 227.812222,60.1763238 C227.812222,6.05202701 357.497262,43.6116825 132.965029,58.5958169 C115.950063,59.7313088 77.3245905,63.6892754 81.8661062,53.7644424 C137.611435,-68.0590004 144.705749,60.8421642 72.4462795,49.1058638 C55.074756,46.2844008 55.9506795,39.1714913 30.2937677,79.7322165 C29.2112269,81.4435932 30.8811458,84.2527688 32.5800213,85.3584524 C52.6352781,98.4110677 50.51542,86.1495431 76.3675508,94.0996231 C79.2286729,94.979479 83.8830324,100.594778 81.106331,101.71186 C49.9468685,128.141114 28.0511792,144.814003 15.4192633,151.730526 C-12.8009577,167.182323 0.401579388,152.715846 55.0268747,108.331097 C60.5645626,105.52857 87.2794664,108.401061 89.6855553,113.39517 C95.2811032,125.009361 98.2647796,125.875645 40.4040891,162.632797 C38.7369891,163.691856 22.6382822,175.940389 19.0287728,168.749774 C15.4192633,161.559159 119.634079,111.495645 130.708796,107.211379 C141.97852,102.851675 169.337245,94.0996231 191.578566,96.8735739 L205.5709,101.352445 Z" id="a"></path>
  </defs>


  <use xlink:href="#a" fill-opacity=".3" stroke="#000" class="rabbit"/>
</svg>